# xmcd
#
# Track frame offsets:
#	150
#	13406
#	28381
#	46576
#	64725
#	80778
#	98376
#	119150
#	133169
#	151707
#
# Disc length: 2598 seconds
#
# Revision: 1
# Processed by: cddbd v1.5.2PL0 Copyright (c) Steve Scherf et al.
# Submitted via: audiograbber 1.83.01
#
DISCID=830a240a
DTITLE=Dave Dunlop and Rik Emmett - Strung-Out Troubadours
DYEAR=2006
DGENRE=Acoustic
TTITLE0=Light of Day
TTITLE1=Cross Country
TTITLE2=State of Grace
TTITLE3=Dos Arroyos
TTITLE4=Good Thing
TTITLE5=Quintessence
TTITLE6=Faithful Stranger (love returns)
TTITLE7=Even Handed
TTITLE8=Rainhbow World
TTITLE9=Three Clouds Across the Moon (live)
EXTD=
EXTT0=
EXTT1=
EXTT2=
EXTT3=
EXTT4=
EXTT5=
EXTT6=
EXTT7=
EXTT8=
EXTT9=
PLAYORDER=
